<svg width="725" height="706" viewBox="0 0 725 706" fill="none" xmlns="http://www.w3.org/2000/svg">
<g filter="url(#filter0_d_26_3658)">
<path d="M342.277 236.5C342.277 223.521 352.799 213 365.777 213C378.756 213 389.277 223.521 389.277 236.5V480.5C389.277 493.479 378.756 504 365.777 504C352.799 504 342.277 493.479 342.277 480.5V236.5Z" fill="white"/>
<path d="M342.277 236.5C342.277 223.521 352.799 213 365.777 213C378.756 213 389.277 223.521 389.277 236.5V480.5C389.277 493.479 378.756 504 365.777 504C352.799 504 342.277 493.479 342.277 480.5V236.5Z" fill="white"/>
<path d="M454.277 556C454.277 599.63 414.431 635 365.277 635C316.124 635 276.277 599.63 276.277 556C276.277 512.37 316.124 477 365.277 477C414.431 477 454.277 512.37 454.277 556Z" fill="white"/>
<path d="M366.777 21C416.759 21 457.277 61.5182 457.277 111.5V450.5L457.27 451.67C457.201 457.113 456.65 462.441 455.66 467.612C449.078 460.638 441.191 454.454 432.277 449.277V111.5C432.277 75.3253 402.952 46 366.777 46C330.603 46 301.277 75.3253 301.277 111.5V447.595C292.276 452.472 284.241 458.35 277.438 465.021C276.735 460.666 276.343 456.209 276.285 451.67L276.277 450.5V111.5C276.277 61.5182 316.796 21 366.777 21Z" fill="#FFF9F9"/>
<path d="M432.277 423.367C482.584 446.752 517.277 496.236 517.277 553.5C517.277 633.305 449.896 698 366.777 698C283.658 698 216.277 633.305 216.277 553.5C216.277 496.236 250.971 446.752 301.277 423.367V451.517C265.061 472.682 241.277 510.809 241.277 553.5C241.277 618.549 296.497 673 366.777 673C437.057 673 492.277 618.549 492.277 553.5C492.277 510.809 468.494 472.682 432.277 451.517V423.367Z" fill="#FFFBFB"/>
</g>
<path d="M475 124.5C475 112.626 484.626 103 496.5 103H553.5C565.374 103 575 112.626 575 124.5C575 136.374 565.374 146 553.5 146H496.5C484.626 146 475 136.374 475 124.5Z" fill="#FFF8F8"/>
<path d="M492.029 196H614C626.15 196 636 205.85 636 218C636 230.15 626.15 240 614 240H492.029V196Z" fill="#FFF5F5"/>
<path d="M475 218C475 205.85 482.624 196 492.029 196H601.942C611.347 196 618.971 205.85 618.971 218C618.971 230.15 611.347 240 601.942 240H492.029C482.624 240 475 230.15 475 218Z" fill="#FFF5F5"/>
<path d="M497.846 290H669C681.15 290 691 299.85 691 312C691 324.15 681.15 334 669 334H497.846V290Z" fill="#FFF5F5"/>
<path d="M475 312C475 299.85 485.229 290 497.846 290H645.308C657.925 290 668.154 299.85 668.154 312C668.154 324.15 657.925 334 645.308 334H497.846C485.229 334 475 324.15 475 312Z" fill="#FFF5F5"/>
<path d="M475 405.5C475 393.626 484.626 384 496.5 384H553.5C565.374 384 575 393.626 575 405.5C575 417.374 565.374 427 553.5 427H496.5C484.626 427 475 417.374 475 405.5Z" fill="#FFF8F8"/>
<path d="M260 121.5C260 109.626 250.374 100 238.5 100H181.5C169.626 100 160 109.626 160 121.5C160 133.374 169.626 143 181.5 143H238.5C250.374 143 260 133.374 260 121.5Z" fill="#FAF4F4"/>
<path d="M242.971 193H121C108.85 193 99 202.85 99 215C99 227.15 108.85 237 121 237H242.971V193Z" fill="white"/>
<path d="M260 215C260 202.85 252.376 193 242.971 193H133.058C123.653 193 116.029 202.85 116.029 215C116.029 227.15 123.653 237 133.058 237H242.971C252.376 237 260 227.15 260 215Z" fill="white"/>
<path d="M232.5 287H22C9.84974 287 0 296.85 0 309C0 321.15 9.84974 331 22 331H232.5V287Z" fill="white"/>
<path d="M260 309C260 296.85 247.688 287 232.5 287H55C39.8122 287 27.5 296.85 27.5 309C27.5 321.15 39.8122 331 55 331H232.5C247.688 331 260 321.15 260 309Z" fill="white"/>
<path d="M260 402.5C260 390.626 250.374 381 238.5 381H181.5C169.626 381 160 390.626 160 402.5C160 414.374 169.626 424 181.5 424H238.5C250.374 424 260 414.374 260 402.5Z" fill="#FAF4F4"/>
<defs>
<filter id="filter0_d_26_3658" x="212.277" y="0" width="326.229" height="706" filterUnits="userSpaceOnUse" color-interpolation-filters="sRGB">
<feFlood flood-opacity="0" result="BackgroundImageFix"/>
<feColorMatrix in="SourceAlpha" type="matrix" values="0 0 0 0 0 0 0 0 0 0 0 0 0 0 0 0 0 0 127 0" result="hardAlpha"/>
<feOffset dy="4"/>
<feGaussianBlur stdDeviation="2"/>
<feComposite in2="hardAlpha" operator="out"/>
<feColorMatrix type="matrix" values="0 0 0 0 0 0 0 0 0 0 0 0 0 0 0 0 0 0 0.25 0"/>
<feBlend mode="normal" in2="BackgroundImageFix" result="effect1_dropShadow_26_3658"/>
<feBlend mode="normal" in="SourceGraphic" in2="effect1_dropShadow_26_3658" result="shape"/>
</filter>
</defs>
</svg>
