<svg width="201" height="343" viewBox="0 0 201 343" fill="none" xmlns="http://www.w3.org/2000/svg">
<path d="M108.447 0.720261C99.0215 0.00982982 87.1963 1.0411 78.9848 3.47948C70.7791 5.92245 64.4186 8.25084 57.8988 12.7518C51.3732 17.2481 47.7773 20.9469 43.7865 26.9879C39.7898 33.0243 36.9956 39.5327 36.5299 47.0129C36.0642 54.4931 36.7421 64.2008 36.5299 72.2218C36.3177 80.2428 36.636 89.6571 36.5299 97.889C36.4238 106.121 36.6007 114.806 36.5299 123.098C36.4592 131.389 36.6183 140.547 36.5299 148.765C36.4415 156.983 36.6891 166.012 36.5299 173.974C36.3708 181.935 36.8659 192.257 36.5299 199.641C36.1939 207.025 27.2514 208.363 22.8361 214.203C18.4209 220.042 13.6107 223.727 10.1857 230.034C6.75492 236.336 3.77212 242.102 2.20998 249.041C0.647836 255.981 -0.153866 265.876 1.16069 272.976C2.48114 280.076 4.52666 287.203 7.78063 293.496C11.0346 299.789 14.8368 304.221 19.5822 309.529C24.3216 314.836 29.1554 318.59 35.4983 322.821C41.8412 327.051 47.1938 329.962 54.7569 333.056C62.3259 336.145 70.3665 338.129 78.9612 339.903C87.55 341.682 99.328 341.787 108.447 341.269C117.567 340.751 127.582 339.33 135.552 336.676C143.516 334.018 150.171 331.859 156.962 328.115C163.753 324.37 168.87 320.992 174.617 316.175C180.365 311.353 183.984 307.228 188.164 301.499C192.343 295.769 195.161 289.646 197.472 283.069C199.788 276.496 200.832 267.352 200.407 260.142C199.983 252.933 198.727 244.687 195.556 238.247C192.384 231.808 189.767 226.61 184.639 221.069C179.51 215.523 177.83 211.787 170.196 207.089C162.568 202.387 164.266 193.811 164.449 185.891C164.631 177.971 164.354 168.895 164.449 160.682C164.543 152.468 164.384 143.334 164.449 135.015C164.513 126.696 164.366 118.125 164.449 109.806C164.531 101.487 164.295 92.3522 164.449 84.1387C164.602 75.9252 164.113 66.8454 164.449 58.9298C164.785 51.0142 164.278 42.3195 161.495 35.5589C158.713 28.7983 155.842 24.1324 150.448 18.9394C145.055 13.751 139.861 10.208 132.663 7.10039C125.46 3.99741 116.523 1.32986 108.447 0.720261ZM141.459 46.5546C142.066 49.1854 142.048 52.3251 142.048 55.2631C142.048 55.4922 142.048 55.7214 142.048 55.7214C142.048 58.3981 141.465 61.6707 141.459 63.9716C141.447 66.795 142.048 70.1225 142.048 73.1384C142.048 73.3676 142.048 73.5968 142.048 73.5968C142.048 76.3468 142.048 79.0969 142.048 81.847C142.048 82.0761 142.048 82.3053 142.048 82.3053C142.048 85.0554 142.048 87.8054 142.048 90.5555C142.048 92.8472 142.048 95.1389 142.048 97.4306C142.048 97.6598 142.048 101.327 142.048 101.327C142.048 103.783 142.048 105.461 142.048 106.836C142.048 109.577 142.048 111.803 142.048 111.803C142.048 113.377 142.048 112.258 142.048 114.16C142.048 117.369 142.042 121.264 142.048 124.473C142.048 124.702 142.048 124.931 142.048 124.931C142.048 127.53 142.048 130.124 142.048 132.723C142.048 132.952 142.048 133.181 142.048 133.181C142.048 135.78 142.048 138.374 142.048 140.973C142.048 141.202 142.048 141.432 142.048 141.432C142.048 143.723 142.048 146.015 142.048 148.307C142.048 151.364 142.048 154.416 142.048 157.474C142.048 160.224 142.048 162.974 142.048 165.724C142.048 172.636 142.125 180.446 142.048 187.266C141.971 194.086 142.254 202.318 142.048 208.808C141.842 215.298 150.271 215.903 154.869 220.381C159.473 224.859 163.712 227.334 167.26 232.289C170.809 237.244 173.739 242.189 175.643 247.772C177.547 253.354 179.422 260.954 178.596 267.017C177.771 273.081 176.179 279.333 173.692 284.746C171.198 290.155 168.103 294.293 163.995 298.749C159.886 303.204 156.42 306.655 150.743 309.987C145.072 313.324 140.233 316.253 133.66 318.705C127.087 321.157 119.6 322.472 112.179 323.545C104.757 324.617 94.0344 324.517 86.6363 323.394C79.2383 322.271 72.471 320.318 65.8746 317.994C59.2782 315.675 54.975 312.723 49.3513 309.3C43.7335 305.871 40.0669 302.191 36.076 297.621C32.0852 293.051 29.2969 288.628 26.9095 283.206C24.5221 277.784 22.7359 271.248 22.3822 265.184C22.0344 259.116 23.7322 251.869 25.8779 246.36C28.0177 240.851 30.7117 236.354 34.6141 231.611C38.5165 226.871 41.9709 223.576 47.2881 219.464C52.6052 215.348 60.4513 214.34 59.5199 207.433C58.5885 200.526 59.9385 192.954 59.5199 185.891C59.1014 178.828 59.7086 171.485 59.5199 164.349C59.3313 157.212 59.6083 149.984 59.5199 142.807C59.4315 135.629 59.573 127.975 59.5199 120.806C59.4669 113.638 59.5671 106.355 59.5199 99.264C59.4728 92.1734 59.5966 84.6749 59.5199 77.7219C59.4433 70.7688 59.6732 62.8441 59.5199 56.1798C59.3667 49.5154 59.125 42.4982 62.6501 37.0714C66.1752 31.6401 69.3997 28.6242 75.2887 24.8978C81.1718 21.1669 87.4734 19.5673 94.8892 18.5956C102.311 17.6239 111.418 18.8294 118.015 21.2403C124.611 23.6512 128.844 26.36 133.353 30.8563C137.863 35.3527 140.952 40.7886 141.459 46.5546Z" fill="white" stroke="white"/>
<path d="M96.4442 309.243C99.1912 309.243 101.95 309.284 104.697 309.243C111.175 309.316 118.078 307.547 123.743 305.718C129.402 303.885 133.511 301.552 138.162 298.596C142.813 295.64 146.138 292.885 149.351 288.961C152.557 285.033 154.839 281.335 156.613 276.733C158.387 272.131 159.608 265.261 158.924 260.205C158.24 255.15 156.607 250.167 153.807 245.85C151.001 241.537 148.973 238.475 144.929 234.877C140.88 231.284 137.184 229.212 131.961 226.627C126.732 224.046 119.257 223.308 120.613 217.116C121.969 210.924 120.006 205.373 120.613 199.241C121.22 193.108 120.313 187.049 120.613 180.907C120.914 174.765 120.413 168.747 120.613 162.573C120.814 156.4 120.389 150.996 120.613 144.698C120.837 138.4 120.218 128.821 120.613 122.239C120.613 122.239 120.613 122.239 108.378 122.239C98.0617 122.239 86.4465 122.546 79.349 122.239C79.349 155.698 79.349 189.157 79.349 222.616C53.276 228.653 37.9081 251.923 42.6063 271.81C47.3045 291.698 69.5518 309.243 96.4442 309.243Z" fill="white" stroke="white"/>
<path d="M141.494 108.961C141.494 105.848 141.494 103.557 141.494 99.8897C137.475 99.8895 132.755 99.8897 128.5 99.8897C128.5 102.913 128.5 105.937 128.5 108.961C131.792 108.961 132.485 108.961 134.91 108.961C137.509 108.961 139.069 108.961 141.494 108.961Z" fill="white" stroke="white"/>
<path d="M141.494 125.827C141.494 122.714 141.494 120.423 141.494 116.756C137.475 116.756 132.755 116.756 128.5 116.756C128.5 119.78 128.5 122.803 128.5 125.827C131.792 125.827 132.485 125.827 134.91 125.827C137.509 125.827 139.069 125.827 141.494 125.827Z" fill="white" stroke="white"/>
<path d="M141.494 141.72C141.494 138.607 141.494 136.315 141.494 132.648C137.475 132.648 132.755 132.648 128.5 132.648C128.5 135.672 128.5 138.696 128.5 141.72C131.792 141.72 132.485 141.72 134.91 141.72C137.509 141.72 139.069 141.72 141.494 141.72Z" fill="white" stroke="white"/>
<path d="M141.494 157.681C141.494 154.568 141.494 152.276 141.494 148.609C137.475 148.609 132.755 148.609 128.5 148.609C128.5 151.633 128.5 154.657 128.5 157.681C131.792 157.681 132.485 157.681 134.91 157.681C137.509 157.681 139.069 157.681 141.494 157.681Z" fill="white" stroke="white"/>
<path d="M141.494 174.547C141.494 171.434 141.494 169.142 141.494 165.476C137.475 165.475 132.755 165.476 128.5 165.476C128.5 168.499 128.5 171.523 128.5 174.547C131.792 174.547 132.485 174.547 134.91 174.547C137.509 174.547 139.069 174.547 141.494 174.547Z" fill="white" stroke="white"/>
<path d="M141.494 190.439C141.494 187.327 141.494 185.035 141.494 181.368C137.475 181.368 132.755 181.368 128.5 181.368C128.5 184.392 128.5 187.416 128.5 190.439C131.792 190.439 132.485 190.439 134.91 190.439C137.509 190.439 139.069 190.439 141.494 190.439Z" fill="white" stroke="white"/>
<path d="M141.494 61.7042C141.494 58.6951 141.494 56.4795 141.494 52.9346C137.473 52.9345 132.752 52.9346 128.494 52.9346C128.494 55.8578 128.494 58.781 128.494 61.7042C131.787 61.7042 132.481 61.7042 134.907 61.7042C137.507 61.7042 139.067 61.7042 141.494 61.7042Z" fill="white" stroke="white"/>
<path d="M141.494 77.295C141.494 74.2859 141.494 72.0703 141.494 68.5254C137.473 68.5253 132.752 68.5254 128.494 68.5254C128.494 71.4486 128.494 74.3718 128.494 77.295C131.787 77.295 132.481 77.295 134.907 77.295C137.507 77.295 139.067 77.295 141.494 77.295Z" fill="white" stroke="white"/>
<path d="M141.494 92.8848C141.494 89.8758 141.494 87.6602 141.494 84.1152C137.473 84.1151 132.752 84.1153 128.494 84.1153C128.494 87.0385 128.494 89.9617 128.494 92.8848C131.787 92.8848 132.481 92.8848 134.907 92.8848C137.507 92.8848 139.067 92.8848 141.494 92.8848Z" fill="white" stroke="white"/>
</svg>
