<svg width="785" height="706" viewBox="0 0 785 706" fill="none" xmlns="http://www.w3.org/2000/svg">
<g filter="url(#filter0_d_27_3663)">
<path d="M360.176 236.5C360.176 223.521 370.697 213 383.676 213C396.654 213 407.176 223.521 407.176 236.5V480.5C407.176 493.479 396.654 504 383.676 504C370.697 504 360.176 493.479 360.176 480.5V236.5Z" fill="#2550C1"/>
<path d="M360.176 236.5C360.176 223.521 370.697 213 383.676 213C396.654 213 407.176 223.521 407.176 236.5V480.5C407.176 493.479 396.654 504 383.676 504C370.697 504 360.176 493.479 360.176 480.5V236.5Z" fill="#2550C1"/>
<path d="M472.176 556C472.176 599.63 432.329 635 383.176 635C334.022 635 294.176 599.63 294.176 556C294.176 512.37 334.022 477 383.176 477C432.329 477 472.176 512.37 472.176 556Z" fill="#2550C1"/>
<path d="M384.676 21C434.658 21 475.176 61.5182 475.176 111.5V450.5L475.168 451.67C475.099 457.113 474.548 462.441 473.559 467.612C466.976 460.638 459.089 454.454 450.176 449.277V111.5C450.176 75.3253 420.85 46 384.676 46C348.501 46 319.176 75.3253 319.176 111.5V447.595C310.175 452.472 302.139 458.35 295.336 465.021C294.634 460.666 294.241 456.209 294.184 451.67L294.176 450.5V111.5C294.176 61.5182 334.694 21 384.676 21Z" fill="#2550C1"/>
<path d="M450.176 423.367C500.482 446.752 535.176 496.236 535.176 553.5C535.176 633.305 467.795 698 384.676 698C301.557 698 234.176 633.305 234.176 553.5C234.176 496.236 268.869 446.752 319.176 423.367V451.517C282.96 472.682 259.176 510.809 259.176 553.5C259.176 618.549 314.396 673 384.676 673C454.956 673 510.176 618.549 510.176 553.5C510.176 510.809 486.392 472.682 450.176 451.517V423.367Z" fill="#2550C1"/>
</g>
<path d="M513.482 124.5C513.482 112.626 523.108 103 534.982 103H591.982C603.857 103 613.482 112.626 613.482 124.5C613.482 136.374 603.857 146 591.982 146H534.982C523.108 146 513.482 136.374 513.482 124.5Z" fill="#2550C1"/>
<path d="M530.511 196H652.482C664.633 196 674.482 205.85 674.482 218C674.482 230.15 664.633 240 652.482 240H530.511V196Z" fill="#2550C1"/>
<path d="M513.482 218C513.482 205.85 521.106 196 530.511 196H640.425C649.829 196 657.454 205.85 657.454 218C657.454 230.15 649.829 240 640.425 240H530.511C521.106 240 513.482 230.15 513.482 218Z" fill="#2550C1"/>
<path d="M536.329 290H707.482C719.633 290 729.482 299.85 729.482 312C729.482 324.15 719.633 334 707.482 334H536.329V290Z" fill="#2550C1"/>
<path d="M513.482 312C513.482 299.85 523.711 290 536.329 290H683.79C696.408 290 706.636 299.85 706.636 312C706.636 324.15 696.408 334 683.79 334H536.329C523.711 334 513.482 324.15 513.482 312Z" fill="#2550C1"/>
<path d="M513.482 405.5C513.482 393.626 523.108 384 534.982 384H591.982C603.857 384 613.482 393.626 613.482 405.5C613.482 417.374 603.857 427 591.982 427H534.982C523.108 427 513.482 417.374 513.482 405.5Z" fill="#2550C1"/>
<path d="M281.518 121.5C281.518 109.626 271.892 100 260.018 100H203.018C191.143 100 181.518 109.626 181.518 121.5C181.518 133.374 191.143 143 203.018 143H260.018C271.892 143 281.518 133.374 281.518 121.5Z" fill="#2550C1"/>
<path d="M264.489 193H142.518C130.367 193 120.518 202.85 120.518 215C120.518 227.15 130.367 237 142.518 237H264.489V193Z" fill="#2550C1"/>
<path d="M281.518 215C281.518 202.85 273.894 193 264.489 193H154.575C145.171 193 137.546 202.85 137.546 215C137.546 227.15 145.171 237 154.575 237H264.489C273.894 237 281.518 227.15 281.518 215Z" fill="#2550C1"/>
<path d="M254.018 287H43.5176C31.3673 287 21.5176 296.85 21.5176 309C21.5176 321.15 31.3673 331 43.5176 331H254.018V287Z" fill="#2550C1"/>
<path d="M281.518 309C281.518 296.85 269.205 287 254.018 287H76.5176C61.3297 287 49.0176 296.85 49.0176 309C49.0176 321.15 61.3297 331 76.5176 331H254.018C269.205 331 281.518 321.15 281.518 309Z" fill="#2550C1"/>
<path d="M281.518 402.5C281.518 390.626 271.892 381 260.018 381H203.018C191.143 381 181.518 390.626 181.518 402.5C181.518 414.374 191.143 424 203.018 424H260.018C271.892 424 281.518 414.374 281.518 402.5Z" fill="#2550C1"/>
<defs>
<filter id="filter0_d_27_3663" x="230.176" y="0" width="352.564" height="706" filterUnits="userSpaceOnUse" color-interpolation-filters="sRGB">
<feFlood flood-opacity="0" result="BackgroundImageFix"/>
<feColorMatrix in="SourceAlpha" type="matrix" values="0 0 0 0 0 0 0 0 0 0 0 0 0 0 0 0 0 0 127 0" result="hardAlpha"/>
<feOffset dy="4"/>
<feGaussianBlur stdDeviation="2"/>
<feComposite in2="hardAlpha" operator="out"/>
<feColorMatrix type="matrix" values="0 0 0 0 0 0 0 0 0 0 0 0 0 0 0 0 0 0 0.25 0"/>
<feBlend mode="normal" in2="BackgroundImageFix" result="effect1_dropShadow_27_3663"/>
<feBlend mode="normal" in="SourceGraphic" in2="effect1_dropShadow_27_3663" result="shape"/>
</filter>
</defs>
</svg>
